# xmcd
#
# Track frame offsets:
#	150
#	17440
#	35367
#	53361
#	70430
#	84757
#	103809
#	120654
#	142002
#	159837
#	174098
#	190459
#	209477
#	227855
#	242419
#	262295
#	281723
#
# Disc length: 3987 seconds
#
# Revision: 1
# Processed by: cddbd v1.5.1PL2 Copyright (c) Steve Scherf et al.
# Submitted via: audiograbber 1.83.01
#
DISCID=e70f9111
DTITLE=Various Artist - Chartbusters - Country 2004 - Disc 4 (5042-01)
DYEAR=1900
DGENRE=Country
TTITLE0=Gretchen Wilson - Redneck Woman
TTITLE1=Sara Evans - Suds iin the Bucket
TTITLE2=Reba McEntire - Somebody
TTITLE3=Rhonda Vincent - If Heartaches Had Wings
TTITLE4=Amy Dailley - Men Don't Change
TTITLE5=Julie Roberts - Break Down Here
TTITLE6=Terri Clark - Girls Lie Too
TTITLE7=Wynnona - Flies on The Butter (You Can't Go Home Again)
TTITLE8=Rachael Proctor - Me and Emily
TTITLE9=Trick Pony - The Bride
TTITLE10=Jill Kinh - 98.6 Degrees and Falling
TTITLE11=Shania Twain - Don't
TTITLE12=Anita Conchran - I Wanna Hear a Cheatin Song
TTITLE13=Leann Womack - Wrong Girl
TTITLE14=Dolly Parton - Welcome Home
TTITLE15=Sherri Austin - Drivin Into The Sun
TTITLE16=Jenkins - Blame It On Mama
EXTD=
EXTT0=
EXTT1=
EXTT2=
EXTT3=
EXTT4=
EXTT5=
EXTT6=
EXTT7=
EXTT8=
EXTT9=
EXTT10=
EXTT11=
EXTT12=
EXTT13=
EXTT14=
EXTT15=
EXTT16=
PLAYORDER=
